<svg width="202" height="205" viewBox="0 0 202 205" fill="none" xmlns="http://www.w3.org/2000/svg">
<path d="M197 102.5C197 156.418 153.95 200 101 200C48.0499 200 5 156.418 5 102.5C5 48.5825 48.0499 5 101 5C153.95 5 197 48.5825 197 102.5Z" stroke="white" stroke-width="10"/>
<circle cx="63.5" cy="55.5" r="10.5" stroke="white" stroke-width="10"/>
<circle cx="135.5" cy="55.5" r="10.5" stroke="white" stroke-width="10"/>
<mask id="path-4-inside-1" fill="white">
<path d="M174 102C174 121.626 166.309 140.448 152.619 154.326C138.929 168.204 120.361 176 101 176C81.6392 176 63.0714 168.204 49.3812 154.326C35.6911 140.448 28 121.626 28 102L101 102H174Z"/>
</mask>
<path d="M174 102C174 121.626 166.309 140.448 152.619 154.326C138.929 168.204 120.361 176 101 176C81.6392 176 63.0714 168.204 49.3812 154.326C35.6911 140.448 28 121.626 28 102L101 102H174Z" stroke="white" stroke-width="20" mask="url(#path-4-inside-1)"/>
</svg>
